<mxfile host="app.diagrams.net">
  <diagram name="Diagramme d'activité - Gestion BDD" id="activity-diagram-bdd">
    <mxGraphModel dx="1111" dy="678" grid="1" gridSize="10" guides="1" tooltips="1" connect="1" arrows="1" fold="1" page="1" pageScale="1" pageWidth="850" pageHeight="1100" math="0" shadow="0">
      <root>
        <mxCell id="0"/>
        <mxCell id="1" parent="0"/>

        <!-- Début -->
        <mxCell id="2" value="" style="ellipse;whiteSpace=wrap;html=1;aspect=fixed;fillColor=#000000;strokeColor=#000000;" vertex="1" parent="1">
          <mxGeometry x="100" y="70" width="30" height="30" as="geometry"/>
        </mxCell>
        <!-- Etiquette Début -->
        <mxCell id="2a" value="Début" style="text;html=1;strokeColor=none;fillColor=none;align=left;verticalAlign=top;" vertex="1" parent="1">
          <mxGeometry x="140" y="75" width="60" height="20" as="geometry"/>
        </mxCell>

        <!-- Connexion BDD -->
        <mxCell id="3" value="Se connecter à la BDD" style="rounded=1;whiteSpace=wrap;html=1;" vertex="1" parent="1">
          <mxGeometry x="90" y="120" width="150" height="40" as="geometry"/>
        </mxCell>
        <mxCell id="e1" style="edgeStyle=orthogonalEdgeStyle;endArrow=block;html=1;" edge="1" parent="1" source="2" target="3">
          <mxGeometry relative="1" as="geometry"/>
        </mxCell>

        <!-- Décision connexion -->
        <mxCell id="4" value="Connexion réussie ?" style="rhombus;whiteSpace=wrap;html=1;" vertex="1" parent="1">
          <mxGeometry x="120" y="180" width="60" height="60" as="geometry"/>
        </mxCell>
        <mxCell id="e2" style="edgeStyle=orthogonalEdgeStyle;endArrow=block;html=1;" edge="1" parent="1" source="3" target="4">
          <mxGeometry relative="1" as="geometry"/>
        </mxCell>

        <!-- Si non -->
        <mxCell id="5" value="Afficher erreur &amp; Recommencer" style="rounded=1;whiteSpace=wrap;html=1;fillColor=#ffe6e6;" vertex="1" parent="1">
          <mxGeometry x="10" y="260" width="150" height="40" as="geometry"/>
        </mxCell>
        <mxCell id="e3" value="Non" style="edgeStyle=orthogonalEdgeStyle;endArrow=block;html=1;" edge="1" parent="1" source="4" target="5">
          <mxGeometry relative="1" as="geometry">
            <mxPoint x="50" y="210" as="targetPoint"/>
          </mxGeometry>
        </mxCell>
        <mxCell id="e3b" style="edgeStyle=orthogonalEdgeStyle;endArrow=block;html=1;" edge="1" parent="1" source="5" target="3">
          <mxGeometry relative="1" as="geometry"/>
        </mxCell>

        <!-- Si oui -->
        <mxCell id="6" value="Sélectionner une opération" style="rounded=1;whiteSpace=wrap;html=1;" vertex="1" parent="1">
          <mxGeometry x="220" y="260" width="180" height="40" as="geometry"/>
        </mxCell>
        <mxCell id="e4" value="Oui" style="edgeStyle=orthogonalEdgeStyle;endArrow=block;html=1;" edge="1" parent="1" source="4" target="6">
          <mxGeometry relative="1" as="geometry"/>
        </mxCell>

        <!-- Décision opération -->
        <mxCell id="7" value="Ajouter ?
Modifier ?
Supprimer ?
Consulter ?" style="rhombus;whiteSpace=wrap;html=1;" vertex="1" parent="1">
          <mxGeometry x="260" y="320" width="100" height="100" as="geometry"/>
        </mxCell>
        <mxCell id="e5" style="edgeStyle=orthogonalEdgeStyle;endArrow=block;html=1;" edge="1" parent="1" source="6" target="7">
          <mxGeometry relative="1" as="geometry"/>
        </mxCell>

        <!-- Ajouter -->
        <mxCell id="8" value="Ajouter des données" style="rounded=1;whiteSpace=wrap;html=1;" vertex="1" parent="1">
          <mxGeometry x="110" y="440" width="140" height="40" as="geometry"/>
        </mxCell>
        <mxCell id="e6" value="Ajouter" style="edgeStyle=orthogonalEdgeStyle;endArrow=block;html=1;" edge="1" parent="1" source="7" target="8">
          <mxGeometry relative="1" as="geometry">
            <mxPoint x="160" y="420" as="targetPoint"/>
          </mxGeometry>
        </mxCell>
        <!-- Erreur ajout -->
        <mxCell id="8e" value="Erreur ajout" style="rounded=1;whiteSpace=wrap;html=1;fillColor=#ffe6e6;" vertex="1" parent="1">
          <mxGeometry x="20" y="500" width="110" height="40" as="geometry"/>
        </mxCell>
        <mxCell id="e6b" value="Erreur" style="edgeStyle=orthogonalEdgeStyle;endArrow=block;html=1;" edge="1" parent="1" source="8" target="8e">
          <mxGeometry relative="1" as="geometry"/>
        </mxCell>
        <mxCell id="e6c" style="edgeStyle=orthogonalEdgeStyle;endArrow=block;html=1;" edge="1" parent="1" source="8e" target="6">
          <mxGeometry relative="1" as="geometry"/>
        </mxCell>

        <!-- Modifier -->
        <mxCell id="9" value="Modifier des données" style="rounded=1;whiteSpace=wrap;html=1;" vertex="1" parent="1">
          <mxGeometry x="270" y="450" width="140" height="40" as="geometry"/>
        </mxCell>
        <mxCell id="e7" value="Modifier" style="edgeStyle=orthogonalEdgeStyle;endArrow=block;html=1;" edge="1" parent="1" source="7" target="9">
          <mxGeometry relative="1" as="geometry"/>
        </mxCell>
        <!-- Erreur modif -->
        <mxCell id="9e" value="Erreur modification" style="rounded=1;whiteSpace=wrap;html=1;fillColor=#ffe6e6;" vertex="1" parent="1">
          <mxGeometry x="210" y="510" width="120" height="40" as="geometry"/>
        </mxCell>
        <mxCell id="e7b" value="Erreur" style="edgeStyle=orthogonalEdgeStyle;endArrow=block;html=1;" edge="1" parent="1" source="9" target="9e">
          <mxGeometry relative="1" as="geometry"/>
        </mxCell>
        <mxCell id="e7c" style="edgeStyle=orthogonalEdgeStyle;endArrow=block;html=1;" edge="1" parent="1" source="9e" target="6">
          <mxGeometry relative="1" as="geometry"/>
        </mxCell>

        <!-- Supprimer -->
        <mxCell id="10" value="Supprimer des données" style="rounded=1;whiteSpace=wrap;html=1;" vertex="1" parent="1">
          <mxGeometry x="460" y="440" width="150" height="40" as="geometry"/>
        </mxCell>
        <mxCell id="e8" value="Supprimer" style="edgeStyle=orthogonalEdgeStyle;endArrow=block;html=1;" edge="1" parent="1" source="7" target="10">
          <mxGeometry relative="1" as="geometry"/>
        </mxCell>
        <!-- Erreur suppression -->
        <mxCell id="10e" value="Erreur suppression" style="rounded=1;whiteSpace=wrap;html=1;fillColor=#ffe6e6;" vertex="1" parent="1">
          <mxGeometry x="540" y="500" width="120" height="40" as="geometry"/>
        </mxCell>
        <mxCell id="e8b" value="Erreur" style="edgeStyle=orthogonalEdgeStyle;endArrow=block;html=1;" edge="1" parent="1" source="10" target="10e">
          <mxGeometry relative="1" as="geometry"/>
        </mxCell>
        <mxCell id="e8c" style="edgeStyle=orthogonalEdgeStyle;endArrow=block;html=1;" edge="1" parent="1" source="10e" target="6">
          <mxGeometry relative="1" as="geometry"/>
        </mxCell>

        <!-- Consulter -->
        <mxCell id="11" value="Consulter des données" style="rounded=1;whiteSpace=wrap;html=1;" vertex="1" parent="1">
          <mxGeometry x="350" y="400" width="140" height="40" as="geometry"/>
        </mxCell>
        <mxCell id="e9" value="Consulter" style="edgeStyle=orthogonalEdgeStyle;endArrow=block;html=1;" edge="1" parent="1" source="7" target="11">
          <mxGeometry relative="1" as="geometry"/>
        </mxCell>
        <!-- (pas d’erreur consultation) -->

        <!-- Revenir au choix opération après ajout/modif/suppr/consult -->
        <mxCell id="e10" style="edgeStyle=orthogonalEdgeStyle;endArrow=block;html=1;dashed=1;" edge="1" parent="1" source="8" target="6">
          <mxGeometry relative="1" as="geometry"/>
        </mxCell>
        <mxCell id="e11" style="edgeStyle=orthogonalEdgeStyle;endArrow=block;html=1;dashed=1;" edge="1" parent="1" source="9" target="6">
          <mxGeometry relative="1" as="geometry"/>
        </mxCell>
        <mxCell id="e12" style="edgeStyle=orthogonalEdgeStyle;endArrow=block;html=1;dashed=1;" edge="1" parent="1" source="10" target="6">
          <mxGeometry relative="1" as="geometry"/>
        </mxCell>
        <mxCell id="e13" style="edgeStyle=orthogonalEdgeStyle;endArrow=block;html=1;dashed=1;" edge="1" parent="1" source="11" target="6">
          <mxGeometry relative="1" as="geometry"/>
        </mxCell>

        <!-- Sortie/Fin -->
        <mxCell id="12" value="Fin" style="ellipse;whiteSpace=wrap;html=1;aspect=fixed;fillColor=#000000;strokeColor=#000000;" vertex="1" parent="1">
          <mxGeometry x="350" y="600" width="30" height="30" as="geometry"/>
        </mxCell>
        <mxCell id="13" value="Déconnexion
BDD" style="rounded=1;whiteSpace=wrap;html=1;" vertex="1" parent="1">
          <mxGeometry x="290" y="540" width="110" height="40" as="geometry"/>
        </mxCell>
        <mxCell id="e14" style="edgeStyle=orthogonalEdgeStyle;endArrow=block;html=1;" edge="1" parent="1" source="6" target="13">
          <mxGeometry relative="1" as="geometry"/>
        </mxCell>
        <mxCell id="e15" style="edgeStyle=orthogonalEdgeStyle;endArrow=block;html=1;" edge="1" parent="1" source="13" target="12">
          <mxGeometry relative="1" as="geometry"/>
        </mxCell>
      </root>
    </mxGraphModel>
  </diagram>
</mxfile>